<?xml version="1.0" encoding="UTF-8"?>
<svg id="Layer_1" data-name="Layer 1" xmlns="http://www.w3.org/2000/svg" viewBox="0 0 177.16 48">
  <defs>
    <style>
      .cls-1 {
        fill: #3880ff;
      }
    </style>
  </defs>
  <g>
    <path class="cls-1" d="m68.02,34.64c-1.25-.53-2.24-1.3-2.96-2.3-.73-1-1.1-2.19-1.12-3.55h4.8c.06.92.39,1.64.98,2.18.59.53,1.39.8,2.42.8s1.87-.25,2.46-.75c.6-.5.9-1.16.9-1.97,0-.66-.2-1.21-.61-1.63-.41-.43-.91-.76-1.52-1.01-.61-.25-1.45-.52-2.51-.82-1.45-.43-2.63-.85-3.54-1.26-.91-.42-1.69-1.04-2.34-1.89-.65-.84-.98-1.97-.98-3.38,0-1.32.33-2.47.99-3.46.66-.98,1.59-1.73,2.78-2.26,1.19-.52,2.56-.78,4.1-.78,2.3,0,4.18.56,5.62,1.68,1.44,1.12,2.24,2.68,2.38,4.69h-4.93c-.04-.77-.37-1.4-.98-1.9-.61-.5-1.41-.75-2.42-.75-.88,0-1.57.22-2.1.67-.52.45-.78,1.1-.78,1.95,0,.6.2,1.09.59,1.49.39.4.88.71,1.47.96.59.25,1.41.53,2.48.85,1.45.43,2.63.85,3.55,1.28.92.43,1.71,1.07,2.37,1.92.66.85.99,1.97.99,3.36,0,1.19-.31,2.3-.93,3.33-.62,1.02-1.53,1.84-2.72,2.45s-2.61.91-4.26.91c-1.56,0-2.96-.27-4.21-.8Z"/>
    <path class="cls-1" d="m88.49,12.88v22.34h-4.48V12.88h4.48Z"/>
    <path class="cls-1" d="m97.51,33.97c-1.75-.98-3.14-2.34-4.16-4.08-1.02-1.74-1.54-3.71-1.54-5.9s.51-4.13,1.54-5.87c1.02-1.74,2.41-3.1,4.16-4.08,1.75-.98,3.67-1.47,5.76-1.47s4.04.49,5.78,1.47c1.74.98,3.12,2.34,4.13,4.08,1.01,1.74,1.52,3.7,1.52,5.87s-.51,4.17-1.52,5.9c-1.01,1.74-2.4,3.1-4.14,4.08-1.75.98-3.67,1.47-5.76,1.47s-4.01-.49-5.76-1.47Zm9.31-3.44c1.02-.61,1.82-1.48,2.4-2.61.58-1.13.86-2.44.86-3.94s-.29-2.8-.86-3.92c-.58-1.12-1.38-1.98-2.4-2.58-1.02-.6-2.21-.9-3.55-.9s-2.53.3-3.57.9c-1.04.6-1.84,1.46-2.42,2.58-.58,1.12-.86,2.43-.86,3.92s.29,2.81.86,3.94c.58,1.13,1.38,2,2.42,2.61s2.22.91,3.57.91,2.53-.3,3.55-.91Z"/>
    <path class="cls-1" d="m122.44,12.88v13.82c0,1.52.39,2.67,1.18,3.47s1.9,1.2,3.33,1.2,2.57-.4,3.36-1.2c.79-.8,1.18-1.96,1.18-3.47v-13.82h4.51v13.79c0,1.9-.41,3.5-1.23,4.82s-1.92,2.3-3.3,2.96c-1.38.66-2.91.99-4.59.99s-3.17-.33-4.53-.99c-1.35-.66-2.43-1.65-3.22-2.96-.79-1.31-1.18-2.92-1.18-4.82v-13.79h4.48Z"/>
    <path class="cls-1" d="m152.94,35.22l-8.13-9.95v9.95h-4.48V12.88h4.48v10.02l8.13-10.02h5.41l-9.22,11.07,9.47,11.26h-5.66Z"/>
    <path class="cls-1" d="m165.05,34.64c-1.25-.53-2.24-1.3-2.96-2.3-.73-1-1.1-2.19-1.12-3.55h4.8c.06.92.39,1.64.98,2.18.59.53,1.39.8,2.42.8s1.87-.25,2.46-.75c.6-.5.9-1.16.9-1.97,0-.66-.2-1.21-.61-1.63-.41-.43-.91-.76-1.52-1.01-.61-.25-1.45-.52-2.51-.82-1.45-.43-2.63-.85-3.54-1.26-.91-.42-1.69-1.04-2.34-1.89-.65-.84-.98-1.97-.98-3.38,0-1.32.33-2.47.99-3.46.66-.98,1.59-1.73,2.78-2.26,1.19-.52,2.56-.78,4.1-.78,2.3,0,4.18.56,5.62,1.68,1.44,1.12,2.24,2.68,2.38,4.69h-4.93c-.04-.77-.37-1.4-.98-1.9-.61-.5-1.41-.75-2.42-.75-.88,0-1.57.22-2.1.67-.52.45-.78,1.1-.78,1.95,0,.6.2,1.09.59,1.49.39.4.88.71,1.47.96.59.25,1.41.53,2.48.85,1.45.43,2.63.85,3.55,1.28.92.43,1.71,1.07,2.37,1.92.66.85.99,1.97.99,3.36,0,1.19-.31,2.3-.93,3.33-.62,1.02-1.53,1.84-2.72,2.45s-2.61.91-4.26.91c-1.56,0-2.96-.27-4.21-.8Z"/>
  </g>
  <path class="cls-1" d="m44,0H4C1.79,0,0,1.79,0,4v40c0,2.21,1.79,4,4,4h40c2.21,0,4-1.79,4-4V4c0-2.21-1.79-4-4-4Zm-12.83,32.08c-.62,1.02-1.53,1.84-2.72,2.45s-2.61.91-4.26.91c-1.56,0-2.96-.27-4.21-.8-1.25-.53-2.24-1.3-2.96-2.3-.73-1-1.1-2.19-1.12-3.55h4.8c.06.92.39,1.64.98,2.18.59.53,1.39.8,2.42.8s1.87-.25,2.46-.75c.6-.5.9-1.16.9-1.97,0-.66-.2-1.21-.61-1.63-.41-.43-.91-.76-1.52-1.01-.61-.25-1.45-.52-2.51-.82-1.45-.43-2.63-.85-3.54-1.26-.91-.42-1.69-1.04-2.34-1.89-.65-.84-.98-1.97-.98-3.38,0-1.32.33-2.47.99-3.46.66-.98,1.59-1.73,2.78-2.26,1.19-.52,2.56-.78,4.1-.78,2.3,0,4.18.56,5.62,1.68,1.44,1.12,2.24,2.68,2.38,4.69h-4.93c-.04-.77-.37-1.4-.98-1.9-.61-.5-1.41-.75-2.42-.75-.88,0-1.57.22-2.1.67-.52.45-.78,1.1-.78,1.95,0,.6.2,1.09.59,1.49.39.4.88.71,1.47.96.59.25,1.41.53,2.48.85,1.45.43,2.63.85,3.55,1.28.92.43,1.71,1.07,2.37,1.92.66.85.99,1.97.99,3.36,0,1.19-.31,2.3-.93,3.33Z"/>
</svg>